<?xml version="1.0" encoding="UTF-8" standalone="no"?>
<!-- Created with Inkscape (http://www.inkscape.org/) -->

<svg
   width="512"
   height="512"
   viewBox="0 0 512 512"
   version="1.1"
   id="svg1"
   sodipodi:docname="drawing2.svg"
   inkscape:export-filename="drawingb.png"
   inkscape:export-xdpi="96"
   inkscape:export-ydpi="96"
   inkscape:version="1.4.2 (f4327f4, 2025-05-13)"
   xmlns:inkscape="http://www.inkscape.org/namespaces/inkscape"
   xmlns:sodipodi="http://sodipodi.sourceforge.net/DTD/sodipodi-0.dtd"
   xmlns:xlink="http://www.w3.org/1999/xlink"
   xmlns="http://www.w3.org/2000/svg"
   xmlns:svg="http://www.w3.org/2000/svg">
  <sodipodi:namedview
     id="namedview1"
     pagecolor="#ffffff"
     bordercolor="#000000"
     borderopacity="0.25"
     inkscape:showpageshadow="2"
     inkscape:pageopacity="0.0"
     inkscape:pagecheckerboard="0"
     inkscape:deskcolor="#d1d1d1"
     inkscape:document-units="px"
     inkscape:zoom="1.4355469"
     inkscape:cx="164.74558"
     inkscape:cy="241.37142"
     inkscape:window-width="1920"
     inkscape:window-height="974"
     inkscape:window-x="-11"
     inkscape:window-y="-11"
     inkscape:window-maximized="1"
     inkscape:current-layer="layer4" />
  <defs
     id="defs1">
    <inkscape:perspective
       sodipodi:type="inkscape:persp3d"
       inkscape:vp_x="0 : 256 : 1"
       inkscape:vp_y="0 : 1000 : 0"
       inkscape:vp_z="512 : 256 : 1"
       inkscape:persp3d-origin="256 : 170.66667 : 1"
       id="perspective47" />
    <filter
       inkscape:label="Film Grain"
       inkscape:menu="Image Effects"
       inkscape:menu-tooltip="Adds a small scale graininess"
       style="color-interpolation-filters:sRGB;"
       id="filter28"
       x="-0.075059411"
       y="-0.090071295"
       width="1.1501188"
       height="1.1801426">
      <feTurbulence
         type="turbulence"
         numOctaves="1"
         baseFrequency="7.7919999999999998"
         seed="0"
         result="result0"
         id="feTurbulence27" />
      <feColorMatrix
         result="result4"
         values="0"
         type="saturate"
         id="feColorMatrix27" />
      <feComposite
         in="SourceGraphic"
         in2="result4"
         operator="arithmetic"
         k1="1.25"
         k2="0.5"
         k3="0.5"
         result="result2"
         id="feComposite27" />
      <feBlend
         result="result5"
         mode="normal"
         in="result2"
         in2="SourceGraphic"
         id="feBlend27" />
      <feComposite
         in="result5"
         in2="SourceGraphic"
         operator="in"
         result="result3"
         id="feComposite28" />
    </filter>
    <filter
       style="color-interpolation-filters:sRGB"
       id="filter32"
       inkscape:label="filter2" />
  </defs>
  <g
     inkscape:label="Layer 1"
     inkscape:groupmode="layer"
     id="layer1">
    <path
       style="baseline-shift:baseline;display:none;overflow:visible;opacity:1;vector-effect:none;fill:#483737;stroke:#501616;stroke-width:1;stroke-linecap:round;paint-order:markers stroke fill;enable-background:accumulate;stop-color:#000000;stop-opacity:1"
       d="m 153.02331,266.11041 c -24.71649,0 -50.79279,27.49182 -44.67226,59.4922 l 10.69671,55.9263 c 6.12053,32.00039 9.25906,67.57166 33.97555,67.57166 h 185.99354 c 24.7165,0 27.72572,-13.15562 32.68783,-45.47278 l 11.98031,-78.02518 c 4.9621,-32.31715 -19.95164,-59.4922 -44.66814,-59.4922 z m 0,4.87215 h 185.99354 c 22.75141,0 46.10785,25.0094 41.00967,54.62005 L 365.479,410.09577 c -5.09818,29.61065 -3.71074,34.13263 -26.46215,34.13263 H 153.02331 c -22.75139,0 -26.36683,-35.82025 -31.59655,-65.39448 l -9.4131,-53.23131 c -5.22973,-29.57422 18.25826,-54.62005 41.00965,-54.62005 z"
       id="rect43"
       sodipodi:nodetypes="ssssssssssssssssss"
       sodipodi:insensitive="true" />
    <path
       style="display:none;opacity:1;fill:none;fill-opacity:1;stroke:#000000;stroke-width:1.726;stroke-linecap:round;stroke-linejoin:round;stroke-dasharray:none"
       d="m 210.24815,242.03302 c 16.60068,-12.38061 -30.51834,-41.38691 -45.50257,-15.11602 -13.21582,-14.32417 -33.65224,-8.37253 -31.34694,15.49933 -23.14476,-14.49529 -42.421707,2.14894 -36.048976,20.20136 -19.639421,-20.87787 -41.548784,16.42234 -20.375515,22.4653 -11.651316,33.97418 15.077194,43.80968 39.889911,31.2335 7.12311,-3.61031 5.68985,47.77874 36.93692,25.63083 10.3259,-7.319 22.84752,32.95505 44.03303,16.10438 12.2242,-9.72296 34.29804,48.36047 63.73878,-14.80272 0.66604,3.22426 42.85235,70.01858 66.39964,19.29385 12.58286,-27.10554 -0.23402,-29.74143 11.61941,-24.86664 45.4193,18.67894 42.78028,-5.35548 48.7619,-9.92653 39.46338,-30.15718 7.09336,-63.65336 -11.66803,-32.91428 l -20.43102,-51.40741 -55.67238,4.90945 -83.24353,-15.32517 z"
       id="path36"
       sodipodi:nodetypes="cccccssscsssccccc" />
    <path
       style="display:none;opacity:1;fill:none;fill-opacity:1;stroke:none;stroke-width:0.850175;stroke-linecap:round;stroke-linejoin:round;stroke-dasharray:none"
       d="m 302.09451,380.02226 c -3.41548,-0.7221 -7.66789,-2.64354 -11.52403,-5.20709 -4.3761,-2.90923 -13.15719,-11.2788 -17.539,-16.71705 -3.67855,-4.56545 -9.75063,-13.46392 -10.2404,-15.00703 -0.65953,-2.07798 -1.96349,-0.76956 -5.00951,5.02664 -3.96019,7.53576 -7.05301,12.13764 -10.89367,16.20894 -3.82383,4.05347 -6.78845,6.00195 -10.83724,7.12272 -6.02216,1.66703 -11.20261,-0.29322 -21.80495,-8.2509 -10.87644,-8.1634 -12.87731,-8.7502 -18.1707,-5.32892 -6.42735,4.15419 -11.47549,4.11557 -17.71,-0.1355 -1.24925,-0.85181 -5.48539,-4.78624 -9.41363,-8.74318 -3.92824,-3.95693 -7.95156,-7.57178 -8.94069,-8.033 -2.94421,-1.37281 -5.08581,-1.08983 -8.6136,1.13817 -6.96237,4.39714 -12.29558,5.30957 -16.51989,2.82631 -4.53441,-2.66556 -7.47724,-7.7869 -11.49818,-20.01008 -1.58235,-4.81015 -2.77173,-7.5734 -3.71026,-8.61997 l -1.38135,-1.54033 -2.12877,0.81749 c -1.17083,0.44961 -3.6057,1.381 -5.41084,2.06975 -10.141,3.86931 -20.838333,3.55666 -27.318138,-0.79841 -2.90697,-1.95377 -5.801485,-5.69232 -6.956357,-8.98481 -1.313761,-3.74547 -1.180439,-13.07877 0.258658,-18.10743 1.46593,-5.12242 1.429655,-5.46293 -0.662555,-6.21948 -2.577441,-0.93202 -4.960028,-3.24699 -5.914752,-5.7469 -1.642804,-4.30162 0.130547,-10.74536 4.160311,-15.11714 5.986127,-6.49418 13.633855,-6.80935 20.413954,-0.84127 3.534026,3.11078 4.085981,2.65979 3.017347,-2.46541 -1.696123,-8.13465 2.065359,-15.72417 9.581362,-19.33226 2.66469,-1.2792 4.01614,-1.59999 7.45973,-1.77072 5.1882,-0.25722 9.03082,0.6296 14.63999,3.37869 2.23761,1.09667 4.25926,1.87597 4.49257,1.73178 0.23331,-0.14419 0.52311,-2.66296 0.64401,-5.59727 0.19109,-4.63776 0.41404,-5.75013 1.70572,-8.5104 1.81739,-3.88367 4.01213,-6.1534 7.48946,-7.74538 5.22152,-2.39049 12.33019,-0.74357 17.72449,4.10637 1.3423,1.20684 2.777,2.19426 3.18822,2.19426 0.41122,0 1.54136,-1.08122 2.51142,-2.40272 5.00833,-6.82269 13.46494,-9.38971 23.59025,-7.16084 4.44098,0.97759 11.54318,4.38545 15.20308,7.29492 3.2775,2.60547 6.3865,6.76201 5.323,7.11651 -0.37494,0.12498 -1.75025,1.22673 -3.05625,2.44834 -6.73854,6.30311 -8.58133,19.78224 -4.48171,32.78148 2.4609,7.8031 6.75074,14.6959 13.02051,20.921 8.11424,8.05643 16.60663,11.89114 24.94152,11.26226 4.60398,-0.34738 8.24301,-2.01043 11.47816,-5.24558 7.04647,-7.04647 8.18853,-18.67544 2.94129,-29.94951 -0.78806,-1.6932 -1.3672,-3.07856 -1.28697,-3.07856 0.0802,0 3.00553,1.08994 6.50067,2.42209 17.0714,6.50664 41.29379,12.68226 59.979,15.29194 3.75654,0.52466 6.923,1.04686 7.03658,1.16043 0.11358,0.11358 -0.56241,1.51011 -1.50219,3.10341 -2.32814,3.94708 -3.72386,8.3864 -4.07717,12.96806 -0.7608,9.86587 4.95864,17.1805 15.07605,19.28087 4.54724,0.944 14.70514,0.31581 19.98277,-1.23579 15.59422,-4.58463 29.13326,-16.24421 32.50543,-27.9931 l 0.81293,-2.83227 2.79732,0.005 c 5.11765,0.008 9.54342,3.61798 11.20479,9.13829 1.76855,5.87644 0.12121,13.20358 -4.56053,20.28462 -2.23911,3.38661 -8.19798,9.73858 -11.49371,12.25195 -1.77127,1.35078 -2.96512,2.91603 -4.74826,6.22539 -3.03499,5.6327 -5.42478,8.34941 -8.79526,9.99842 -6.69598,3.27605 -18.41042,1.60119 -34.76065,-4.96986 -3.06665,-1.23246 -6.02906,-2.17596 -6.58313,-2.09666 -0.91921,0.13156 -1.0336,0.59698 -1.30656,5.31616 -0.89395,15.45509 -10.3362,33.76513 -19.8053,38.40565 -3.37183,1.65243 -7.58442,2.22457 -11.02439,1.49729 z"
       id="path37" />
    <path
       style="display:none;opacity:1;fill:none;fill-opacity:1;stroke:none;stroke-width:0.850175;stroke-linecap:round;stroke-linejoin:round;stroke-dasharray:none"
       d="m 301.03707,379.76008 c -6.65492,-1.67821 -14.99971,-7.38219 -22.49799,-15.37825 -4.87147,-5.19486 -11.99495,-14.53947 -14.50468,-19.02727 -1.00422,-1.79573 -2.13742,-3.26496 -2.51821,-3.26496 -0.38728,0 -1.86663,2.34146 -3.35734,5.31385 -5.74065,11.44652 -12.55057,19.76477 -18.55262,22.66183 -4.15824,2.00709 -6.9253,2.3655 -10.7325,1.39014 -4.40265,-1.12791 -6.91483,-2.55654 -14.86301,-8.45231 -11.00256,-8.16144 -12.6799,-8.61173 -18.36323,-4.92974 -4.025,2.60763 -7.28062,3.4422 -10.56046,2.70718 -4.26914,-0.95674 -7.05719,-2.96791 -15.3968,-11.10655 -4.47006,-4.36235 -8.83677,-8.29675 -9.70378,-8.74311 -2.44129,-1.25683 -5.02389,-1.03297 -7.70601,0.66798 -9.22768,5.85203 -14.48411,6.22959 -19.74819,1.41852 -3.24587,-2.96654 -5.6632,-7.69494 -8.86863,-17.34738 -3.79306,-11.42195 -4.05049,-11.65905 -9.96522,-9.17818 -14.114659,5.92026 -26.338023,5.03038 -33.311779,-2.42513 -5.338499,-5.70729 -6.399753,-13.23541 -3.47148,-24.62534 0.653657,-2.54248 1.072389,-4.73878 0.930517,-4.88065 -0.141873,-0.14187 -1.416838,-0.83701 -2.833256,-1.54476 -4.679913,-2.33841 -6.531906,-7.3234 -4.890805,-13.16452 0.900669,-3.20573 4.198198,-7.72099 7.096491,-9.71712 5.509151,-3.7943 10.788127,-3.42396 16.875959,1.1839 1.782343,1.34905 3.48067,2.45282 3.77406,2.45282 0.367752,0 0.401206,-0.72671 0.107706,-2.3397 -0.234151,-1.28684 -0.430522,-4.11296 -0.436379,-6.28027 -0.009,-3.32563 0.203136,-4.37589 1.359338,-6.7303 3.035668,-6.18162 8.807528,-9.82247 16.126348,-10.17238 5.21799,-0.24948 9.05762,0.65615 14.64473,3.45416 2.23553,1.11954 4.19005,1.91008 4.34339,1.75674 0.15335,-0.15334 0.33195,-2.35103 0.39691,-4.88376 0.23584,-9.19612 3.8497,-15.31614 10.31153,-17.46241 5.17198,-1.71786 12.1104,0.16654 17.16303,4.66128 2.70585,2.40709 3.58623,2.52915 4.56669,0.63315 1.20398,-2.32823 5.9814,-6.31893 9.02817,-7.54145 2.41,-0.96701 3.70899,-1.13508 8.74147,-1.13104 5.3541,0.004 6.31731,0.14905 10.22634,1.53681 6.92995,2.46022 12.83388,6.53779 16.20577,11.19254 l 1.38542,1.91252 -2.21656,1.4057 c -2.82854,1.7938 -5.73684,6.2479 -6.94792,10.64084 -1.39718,5.06795 -1.27994,15.7077 0.2349,21.31785 4.29693,15.91349 17.46945,30.18847 31.15051,33.75762 11.07391,2.88898 21.43919,-3.18402 24.40883,-14.30112 1.48359,-5.55393 0.55016,-13.45191 -2.35232,-19.90366 -0.78097,-1.73597 -1.35895,-3.2173 -1.2844,-3.29185 0.0745,-0.0745 3.12362,0.98533 6.7757,2.35529 18.00705,6.75477 42.71942,12.97586 61.11202,15.38433 3.0163,0.39498 5.56244,0.79641 5.65809,0.89206 0.0956,0.0956 -0.48001,1.16164 -1.27925,2.36887 -0.79925,1.20723 -2.06502,3.85738 -2.81283,5.88923 -1.19153,3.23743 -1.35967,4.39477 -1.35967,9.35883 0,5.21219 0.11057,5.88972 1.38459,8.48414 2.24161,4.56482 6.97066,7.88296 13.19036,9.25498 4.52139,0.99739 14.5441,0.40003 19.90493,-1.18636 5.26199,-1.55713 12.3146,-4.84766 16.60954,-7.74952 8.1554,-5.51013 15.15512,-14.59412 16.41325,-21.30051 l 0.33529,-1.78725 2.77746,0.0108 c 7.20367,0.0281 12.16115,6.01445 12.0244,14.51999 -0.13711,8.52722 -5.49203,17.65381 -15.18808,25.88563 -3.48163,2.95586 -4.45575,4.13619 -6.34591,7.68933 -3.17326,5.9651 -4.75301,7.7658 -8.379,9.55087 -4.05236,1.99497 -8.92825,2.39005 -15.4591,1.25261 -5.10901,-0.88982 -14.88201,-3.93185 -20.8818,-6.49986 -4.39257,-1.8801 -6.10244,-2.09499 -6.4668,-0.81272 -0.13472,0.4741 -0.24852,2.48707 -0.25289,4.47327 -0.004,1.98619 -0.25573,4.86773 -0.55858,6.4034 -2.16426,10.97464 -9.33563,24.94121 -15.18545,29.57436 -4.73074,3.74681 -10.58034,5.11542 -16.01081,3.746 z"
       id="path38" />
    <path
       d="m 68.085259,276.15034 c -3.188528,-3.2903 2.004438,5.96387 5.241113,9.13996 6.126861,6.01216 4.50958,3.40219 1.965791,9.72595 -4.086669,10.15929 -0.199253,17.97808 5.812185,23.42791 3.94405,3.57558 7.195015,4.73387 14.021073,4.99798 6.253759,0.24196 9.713689,-0.40688 16.939359,-3.17598 2.50813,-0.9612 4.9625,-1.74799 5.45474,-1.74799 1.7418,0 3.19958,2.48266 6.25874,10.65195 3.67932,9.82535 5.72646,13.88437 8.49801,16.85393 5.37666,5.76078 10.23463,5.64385 20.76932,-0.502 1.48337,-0.86538 2.94545,-1.3413 4.51572,-1.27999 5.53396,0.21604 0.96593,21.10761 27.589,20.52992 14.86031,-0.32245 17.14489,-31.87635 29.53108,1.90799 2.52242,6.88007 15.30652,9.59143 21.29034,9.70396 8.06356,0.15164 15.32754,-8.4549 23.4182,-24.3239 1.5558,-3.05155 2.98236,-12.57071 3.38765,-12.65396 0.45542,-0.0935 1.68845,8.62732 1.91519,11.12397 0.83444,9.18786 21.50521,28.81718 44.83156,24.45422 3.81821,-0.71416 31.03988,-11.55428 25.30197,-33.51619 -0.58558,-2.2413 0.41184,-3.43513 1.3528,-2.67399 2.34499,1.89688 23.33815,13.40925 32.10923,8.88197 19.33867,-9.98185 12.89347,-21.705 23.35529,-23.86191 8.70206,-1.79411 22.65029,-6.29056 17.57261,-23.45391 -1.24469,-4.20723 -2.95038,-11.20874 -13.96232,-13.33795 -2.16624,-0.41885 -2.9055,-0.19451 -3.02635,0.314 -1.59649,6.71867 -4.26717,11.49611 -9.5604,17.10394 -4.32181,4.57867 -6.88139,6.50749 -12.65607,9.53396 -5.37704,2.81808 -10.91494,4.79275 -15.51009,5.53198 -4.69398,0.75512 -14.20104,0.64794 -16.94739,-0.192 -5.80727,-1.77608 -9.92189,-5.02519 -12.18489,-9.62196 -1.31317,-2.66735 -1.5062,-3.59691 -1.61585,-7.83797 -0.15063,-5.82561 0.63556,-9.50866 3.10456,-14.54594 1.02176,-2.08461 1.80704,-3.82693 1.74529,-3.87199 -0.0618,-0.0451 -3.47749,-0.58138 -7.5903,-1.19399 -17.10981,-2.54853 -35.37464,-7.08046 -53.8853,-13.36595 -9.2051,-3.12568 -24.27574,-24.18192 -23.98895,-23.5679 3.7722,8.0763 17.03293,37.49953 15.31064,43.80182 -1.75468,6.42074 -5.79343,10.86357 -12.09993,13.30994 -4.16671,1.61634 -10.81099,1.19886 -16.06464,-1.00998 -13.89478,-5.84192 -26.61493,-22.07729 -29.16131,-37.22186 -0.83035,-4.93842 -0.92064,-12.472 -0.19872,-16.41993 1.03679,-5.66979 29.97749,-11.46745 33.69166,-13.60995 0.83181,-0.47984 -19.95208,0.69665 -19.56174,-1.006 11.20711,-48.88468 -107.08838,84.15124 -146.968871,42.99784 z"
       style="display:none;opacity:1;fill:#c8b7b7;stroke-width:0.850175;stroke-linecap:round;stroke-linejoin:round"
       id="path46"
       sodipodi:nodetypes="sssssssssssssssssssssssscsssssssssssssssssss"
       inkscape:label="path46" />
    <path
       d="m 191.0957,211.89844 c -2.19064,0.14802 -4.45479,0.6129 -6.76367,1.46289 -12.39341,4.56249 -17.62346,14.45117 -19.63281,14.45117 -1.84713,0 -5.80125,-6.17897 -14.32813,-6.78906 -4.83483,-0.34593 -7.44737,0.53743 -10.52539,3.55859 -6.94808,6.81973 -4.47444,17.51929 -5.81054,18.85547 -0.9227,0.9227 -14.87725,-8.84815 -26.54297,-3.14063 -14.489093,7.08886 -7.691097,23.12206 -9.800784,23.47461 -0.001,9e-5 -0.0048,0 -0.0059,0 -0.679213,0 -5.604353,-3.7044 -8.431641,-4.95117 -8.747246,-3.85734 -25.96461,4.09119 -23.137933,14.80274 1.135362,4.3024 5.666972,5.82412 8.796136,8.92578 5.923347,5.87128 4.385939,3.32247 1.701172,9.49804 -4.313151,9.92122 -0.657223,17.55679 5.166016,22.87891 3.820574,3.49179 7.015494,4.62294 13.779297,4.88086 6.196727,0.23629 9.645107,-0.39735 16.882817,-3.10156 2.51231,-0.93867 4.96683,-1.70703 5.45507,-1.70703 1.72763,0 3.1101,2.42449 5.93555,10.40234 3.39822,9.59511 5.32495,13.55901 7.99805,16.45898 5.18567,5.62579 10.00713,5.5116 20.61328,-0.49023 1.49343,-0.8451 2.95579,-1.30987 4.51172,-1.25 5.48344,0.21098 0.41848,20.61298 26.83984,20.04883 14.74772,-0.31489 17.82037,-31.12937 29.24219,1.86328 2.32602,6.71885 14.93686,9.36667 20.86914,9.47656 7.99413,0.14809 15.41906,-8.25677 23.84961,-23.7539 1.62116,-2.98004 3.27947,-12.27613 3.68359,-12.35743 0.45411,-0.0913 1.45417,8.42515 1.61524,10.86329 0.59277,8.97256 20.59367,28.14189 43.84189,23.88117 3.80541,-0.69742 31.08286,-11.28352 25.95303,-32.73078 -0.52352,-2.18878 0.49631,-3.35464 1.41016,-2.61133 2.27744,1.85243 22.8056,13.09502 31.62109,8.67383 19.4366,-9.74794 13.3435,-21.19637 23.77539,-23.30274 8.67717,-1.75207 22.62693,-6.14315 18.0293,-22.9043 -1.12701,-4.10864 -2.63985,-10.94608 -13.50782,-13.02539 -2.13792,-0.40904 -2.8769,-0.18996 -3.00976,0.30664 -1.75527,6.56123 -4.52637,11.22671 -9.91992,16.70313 -4.40372,4.47138 -6.99179,6.355 -12.79688,9.31055 -5.40537,2.75204 -10.94872,4.68044 -15.52539,5.40234 -4.67513,0.73743 -14.10214,0.63276 -16.80469,-0.1875 -5.71464,-1.73446 -9.71275,-4.90743 -11.83984,-9.39648 -1.2343,-2.60485 -1.402,-3.51262 -1.40234,-7.6543 -4.8e-4,-5.68909 0.87348,-9.28584 3.45117,-14.20508 1.06674,-2.03576 1.89018,-3.73725 1.83008,-3.78125 -0.0601,-0.044 -3.43435,-0.56776 -7.49805,-1.16601 -16.90554,-2.48881 -34.90601,-6.91454 -53.10547,-13.05274 -9.05035,-3.05243 -23.46017,-23.61525 -23.19141,-23.01562 3.53507,7.88704 15.93581,36.62078 14.06641,42.77539 -1.90455,6.27028 -6.02404,10.60899 -12.3418,12.99804 -4.17415,1.57846 -10.75374,1.17076 -15.9082,-0.98632 -13.63246,-5.70502 -25.83414,-21.55994 -27.97266,-36.34961 -0.69735,-4.8227 -0.59432,-12.17974 0.22266,-16.03516 1.1733,-5.53692 30.02689,-11.19872 33.76563,-13.29102 0.83732,-0.46859 -19.74054,0.69418 -19.37696,-0.98242 1.36621,-6.30002 -10.39013,-20.77051 -25.72461,-19.73437 z"
       style="display:none;opacity:1;fill:#e2e3db;stroke-width:0.850175;stroke-linecap:round;stroke-linejoin:round"
       id="path41"
       sodipodi:nodetypes="csssssscsssssssssssssssssssssssssscsssssssssssssssssscc" />
    <path
       style="display:none;opacity:1;fill:#ac9393;fill-opacity:1;stroke:none;stroke-width:1.726;stroke-linecap:round;stroke-linejoin:miter;stroke-dasharray:none;paint-order:markers stroke fill"
       d="m 204.66268,240.25083 c -18.30049,42.44162 19.89807,69.61182 45.43955,57.13808 z"
       id="path47"
       sodipodi:nodetypes="ccc" />
    <path
       style="display:none;opacity:1;fill:#ac9393;fill-opacity:1;stroke:none;stroke-width:1.726;stroke-linecap:round;stroke-linejoin:miter;stroke-dasharray:none;paint-order:markers stroke fill"
       d="m 390.99949,284.38852 c 0.0264,0.0484 -6.06841,30.34339 -35.1686,34.40437 -27.35834,3.8179 -30.43481,-11.50113 -30.43481,-11.50113 z"
       id="path48"
       sodipodi:nodetypes="cscc" />
    <path
       style="display:none;opacity:1;fill:#ac9393;fill-opacity:1;stroke:none;stroke-width:1.726;stroke-linecap:round;stroke-linejoin:miter;stroke-dasharray:none;paint-order:markers stroke fill"
       d="m 124.8664,369.6735 c 4.16289,23.89061 9.97091,40.96707 19.88419,62.80988 l 23.41712,8.58797 -18.50124,-11.90663 C 139.39616,408.47055 133.28325,391.18324 124.8664,369.6735 Z"
       id="path49"
       sodipodi:nodetypes="ccccc" />
    <path
       style="display:none;opacity:1;fill:#ac9393;fill-opacity:1;stroke:none;stroke-width:1.726;stroke-linecap:round;stroke-linejoin:miter;stroke-dasharray:none;paint-order:markers stroke fill"
       d="m 328.79022,437.15554 22.16564,-8.86625 8.86625,-16.00852 -3.2017,10.34397 -5.91084,11.57538 -11.57539,2.70913 z"
       id="path50" />
    <path
       style="display:none;opacity:1;fill:#ac9393;fill-opacity:1;stroke:none;stroke-width:1.726;stroke-linecap:round;stroke-linejoin:miter;stroke-dasharray:none;paint-order:markers stroke fill"
       d="m 364.25524,366.96437 -2.95542,20.68792 -4.9257,13.79195 7.14226,-8.61997 z"
       id="path51" />
    <path
       style="display:none;opacity:1;fill:#f9f9f9;fill-opacity:1;stroke:#501616;stroke-width:1.726;stroke-linecap:round;stroke-linejoin:miter;stroke-dasharray:none;paint-order:markers stroke fill"
       d="m 149.24626,443.17903 c -2.83953,-0.55046 -6.55862,-2.67127 -9.03975,-5.15491 -6.8823,-6.88928 -11.0132,-18.5637 -15.34776,-43.3746 -0.97308,-5.56989 -4.05192,-23.05768 -6.84187,-38.86176 -4.59897,-26.05165 -6.13939,-35.2319 -5.93602,-35.37619 0.0393,-0.0279 1.08155,-0.38662 2.31602,-0.79714 2.72391,-0.90583 3.91937,-0.94118 4.62839,-0.13688 0.94327,1.07002 2.6316,4.7564 5.33612,11.65108 3.5514,9.05368 5.34558,12.40792 8.1665,15.26734 2.85944,2.89846 4.82688,3.84984 7.98202,3.85982 2.93747,0.009 5.53717,-0.84319 10.82614,-3.55002 4.90557,-2.5106 6.24911,-2.81214 7.40037,-1.66088 0.4517,0.45171 1.41932,2.38752 2.15024,4.30181 2.74283,7.18347 5.40103,10.59315 10.01858,12.85082 4.07637,1.99308 6.36229,2.45782 12.12605,2.46531 4.89371,0.006 5.10928,-0.0245 6.95051,-0.99341 1.85728,-0.9774 4.45021,-3.41208 9.76786,-9.17166 2.9392,-3.18348 4.24343,-3.76311 6.19573,-2.75354 2.22629,1.15126 4.85245,5.51719 7.77464,12.92517 1.80367,4.57244 3.39217,6.34669 7.45674,8.32866 4.8453,2.36267 12.92734,3.95379 16.85878,3.319 6.16638,-0.99564 12.47832,-7.59757 19.49568,-20.39137 2.08597,-3.80307 2.67475,-5.25502 3.53097,-8.70749 0.56516,-2.27885 1.0288,-4.44377 1.0303,-4.81093 0.006,-1.55494 0.39639,-0.0795 0.71109,2.69013 0.51615,4.54246 2.96781,10.17952 6.19168,14.23641 6.13124,7.71553 16.64584,13.85624 27.05915,15.80302 4.36791,0.81659 12.32565,0.54944 15.31721,-0.51422 6.30383,-2.24134 12.00204,-5.85603 16.7389,-10.61841 3.79758,-3.81804 5.88979,-7.18929 6.95899,-11.21322 0.62354,-2.34675 0.72875,-8.36984 0.17879,-10.23629 -0.46087,-1.5641 -0.45973,-3.38163 0.002,-3.66717 0.19845,-0.12264 1.09967,0.25024 2.00272,0.82864 2.65804,1.70243 10.76749,5.48554 14.53835,6.78223 5.01006,1.72282 8.83507,2.43117 12.17493,2.25469 2.41865,-0.12781 3.14238,-0.33101 5.40483,-1.51749 1.43674,-0.75345 3.6108,-2.12347 4.83124,-3.04448 l 2.219,-1.67457 -0.20488,1.1499 c -0.52549,2.94855 -11.50408,66.91931 -12.78008,74.4669 -2.46846,14.60111 -3.92305,19.05017 -7.15984,21.89931 -1.96909,1.73326 -4.82516,2.705 -9.35283,3.18219 -4.00954,0.42258 -195.49226,0.38789 -197.67793,-0.0358 z m 18.44742,-2.54137 c -0.2805,-0.26589 -4.44107,-3.00491 -9.24569,-6.08671 l -8.73568,-5.60327 -3.02731,-6.46096 c -5.29142,-11.29308 -10.02361,-22.75719 -18.89824,-45.78251 -1.50969,-3.91691 -2.79297,-6.87198 -2.85173,-6.56684 -0.15889,0.82501 2.16914,12.10026 3.97691,19.26127 2.82986,11.20974 8.40785,26.92315 13.97134,39.35782 l 1.71419,3.8313 11.46725,4.24856 c 6.30699,2.3367 11.61839,4.2567 11.80311,4.26666 0.18472,0.01 0.10636,-0.19944 -0.17415,-0.46532 z m 90.69537,-2.1437 c 2.97112,-0.60434 5.14116,-1.8474 6.20105,-3.5521 0.64476,-1.03704 0.80927,-1.77986 0.79132,-3.57315 -0.0347,-3.46803 -1.55356,-6.34941 -5.34089,-10.13206 -7.98986,-7.97997 -17.76854,-9.9858 -26.65535,-5.46761 -4.50804,2.29196 -8.80485,6.40474 -10.68827,10.23052 -0.96729,1.96484 -1.15326,2.73303 -1.1648,4.81147 -0.0168,3.01586 0.8333,4.63408 3.14639,5.98964 2.75181,1.61267 4.68039,1.9422 13.03579,2.2274 9.51144,0.32466 17.46272,0.11925 20.67476,-0.53411 z m 86.79405,-2.78744 5.59127,-1.30856 2.99832,-5.78129 c 2.30533,-4.44509 3.36591,-6.9839 4.58874,-10.98451 0.87472,-2.86178 1.53133,-5.2623 1.45913,-5.3345 -0.13648,-0.13648 -1.70066,2.58548 -6.27439,10.91862 l -2.69424,4.9088 -11.11576,4.44209 c -6.11367,2.44315 -11.11576,4.52745 -11.11576,4.63176 0,0.10432 2.46857,0.10563 5.48571,0.003 4.7036,-0.16014 6.28288,-0.37333 11.07698,-1.49532 z m -82.91576,-20.01029 c 5.40918,-2.61854 4.62382,-11.6759 -1.14576,-13.21364 -3.85191,-1.02663 -7.43554,2.18788 -7.4351,6.66925 3.1e-4,3.1458 1.31922,5.50771 3.67226,6.57634 1.84397,0.83743 3.13,0.82906 4.9086,-0.0319 z m -34.32942,-0.68051 c 1.46846,-1.04564 2.80251,-3.87671 2.80698,-5.95686 0.007,-3.47354 -2.97501,-6.9473 -5.96473,-6.9473 -3.77604,0 -6.32585,2.7985 -6.37154,6.99295 -0.0214,1.96502 0.12368,2.52956 1.01994,3.96863 1.39643,2.24214 2.91329,3.0499 5.42142,2.887 1.32585,-0.0861 2.30169,-0.38457 3.08793,-0.94442 z m 17.8103,-7.57836 c 3.7144,-3.12546 3.7144,-11.00912 0,-14.13459 -1.47378,-1.2401 -3.8969,-1.30869 -5.63141,-0.15941 -3.88529,2.57441 -4.11698,11.10969 -0.38505,14.18585 1.0572,0.87144 1.58616,1.05174 3.0855,1.05174 1.4593,0 2.02663,-0.18264 2.93096,-0.94359 z m 114.45338,-10.28906 3.50265,-4.26667 0.22767,-9.75238 c 0.12523,-5.36381 0.3043,-11.24136 0.39794,-13.06122 0.28305,-5.50127 -0.38682,-2.68826 -1.78323,7.48843 -1.34559,9.80631 -1.41575,10.08839 -4.9594,19.94014 -0.77519,2.1551 -1.29217,3.91837 -1.14885,3.91837 0.14332,0 1.83677,-1.92 3.76322,-4.26667 z"
       id="path53" />
    <text
       xml:space="preserve"
       style="font-style:normal;font-variant:normal;font-weight:normal;font-stretch:normal;font-size:17.0169px;font-family:'Oatew Cute';-inkscape-font-specification:'Oatew Cute';text-align:start;writing-mode:lr-tb;direction:ltr;text-anchor:start;fill:#333333;stroke-width:4.326;stroke-dasharray:none"
       x="440.56372"
       y="18.178257"
       id="text3"><tspan
         sodipodi:role="line"
         id="tspan3"
         x="440.56372"
         y="18.178257"
         style="stroke-width:4.326" /></text>
    <g
       id="g73"
       transform="matrix(1.4830936,0,0,1.4491631,-95.158842,-442.10199)"
       style="display:none;fill:#483737;stroke-width:0.68211">
      <g
         id="g52"
         transform="matrix(0.55815082,0,0,0.56958241,-44.543149,249.21562)"
         style="fill:#483737;stroke-width:1.20977">
        <g
           id="g53"
           style="fill:#483737;stroke-width:1.20977"
           transform="translate(276.81217,-205.55112)">
          <path
             id="path43"
             style="opacity:1;fill:#483737;stroke:#483737;stroke-width:2.08807;stroke-linecap:round;paint-order:markers stroke fill"
             d="m 276.82413,425.45701 c 0,9.58937 -15.21339,8.49683 -28.81533,8.49683 -13.60193,0 -27.83018,0.35368 -27.83018,-9.23568 0,-9.58937 14.22825,-21.54992 27.83018,-21.54992 13.60194,-1e-5 28.81533,12.69941 28.81533,22.28877 z"
             sodipodi:nodetypes="sssss" />
          <ellipse
             style="opacity:1;fill:#483737;fill-opacity:1;stroke:#483737;stroke-width:2.08807;stroke-linecap:round;stroke-linejoin:miter;stroke-dasharray:none;paint-order:markers stroke fill"
             id="path44"
             cx="223.01089"
             cy="396.39542"
             rx="7.0191169"
             ry="7.7579718" />
          <ellipse
             style="fill:#483737;fill-opacity:1;stroke:#483737;stroke-width:2.08807;stroke-linecap:round;stroke-linejoin:miter;stroke-dasharray:none;paint-order:markers stroke fill"
             id="path44-8"
             cx="270.5191"
             cy="396.62097"
             rx="7.0191169"
             ry="7.7579718" />
          <ellipse
             style="opacity:1;fill:#483737;fill-opacity:1;stroke:#483737;stroke-width:2.08807;stroke-linecap:round;stroke-linejoin:miter;stroke-dasharray:none;paint-order:markers stroke fill"
             id="path45"
             cx="247.63937"
             cy="385.06628"
             rx="6.5265474"
             ry="9.2356806" />
        </g>
      </g>
    </g>
  </g>
  <g
     inkscape:groupmode="layer"
     id="layer4"
     inkscape:label="Layer 2">
    <path
       style="display:none;opacity:0.753846;fill:#280b0b;fill-opacity:1;stroke-width:6.07578;stroke-dasharray:none"
       d="m 325.26676,201.40486 c 0,0 4.50556,-6.34566 0.77278,-12.97408 -4.00905,-7.11887 -12.20338,-14.37276 -32.26736,-11.89676 -11.61804,1.43371 -19.70387,8.31998 -20.20382,9.74379 -0.6203,1.76656 50.29931,-9.6543 51.6984,15.12705 z"
       id="path27-8"
       sodipodi:nodetypes="csssc" />
    <path
       style="display:none;opacity:0.753846;fill:#280b0b;fill-opacity:1;stroke-width:6.09023;stroke-dasharray:none"
       d="m 183.39771,207.63865 c 0,0 -5.1178,-5.88762 -2.04515,-12.86646 3.30005,-7.49527 10.76193,-15.5363 31.02008,-15.03697 11.73051,0.28911 20.47296,6.36441 21.11153,7.73564 1.72603,3.70646 -51.11937,-4.56215 -50.08646,20.16779 z"
       id="path27"
       sodipodi:nodetypes="csssc" />
    <path
       style="display:none;opacity:0.753846;fill:#280b0b;fill-opacity:1;stroke-width:4.32599;stroke-dasharray:none"
       d="m 166.64258,364.49476 c 0.33353,0.48973 2.26704,9.75296 2.26704,9.75296 l 3.73397,1.09075 -2.07238,-3.26062 z"
       id="path28" />
    <g
       id="g3"
       transform="matrix(1.2929668,0,0,1.2906642,-71.766917,-76.803164)"
       style="stroke-width:0.774105">
      <g
         id="g5"
         transform="translate(3.9405569,-1.9702785)"
         style="stroke-width:0.774105">
        <circle
           style="fill:none;stroke-width:3.85471;stroke-dasharray:none;filter:url(#filter28)"
           id="path2"
           cx="-359.22974"
           cy="-169.72197"
           transform="rotate(-158.13161)"
           r="237.07942" />
        <g
           id="g32"
           style="stroke-width:0.774105">
          <text
             xml:space="preserve"
             style="font-style:normal;font-variant:normal;font-weight:normal;font-stretch:normal;font-size:45.831px;font-family:'Ambition &amp; Ink';-inkscape-font-specification:'Ambition &amp; Ink';text-align:start;writing-mode:lr-tb;direction:ltr;text-anchor:start;fill:#000000;stroke-width:10.5106;stroke-dasharray:none;filter:url(#filter28)"
             id="text4"
             transform="matrix(0.84291249,0.16070093,-0.16070093,0.84291249,74.255545,2.106552)"><textPath
               xlink:href="#path2"
               id="textPath4"
               style="font-style:normal;font-variant:normal;font-weight:normal;font-stretch:normal;font-family:'Ambition &amp; Ink';-inkscape-font-specification:'Ambition &amp; Ink';fill:#000000;stroke-width:10.5106"><tspan
                 id="tspan4"
                 style="font-style:normal;font-variant:normal;font-weight:normal;font-stretch:normal;font-family:'Ambition &amp; Ink';-inkscape-font-specification:'Ambition &amp; Ink';fill:#000000;stroke-width:10.5106">Coffee . Tea . Pasta .  Pastry . Cakes</tspan></textPath></text>
          <text
             xml:space="preserve"
             style="font-style:normal;font-variant:normal;font-weight:normal;font-stretch:normal;font-size:79.0082px;font-family:'Ambition &amp; Ink';-inkscape-font-specification:'Ambition &amp; Ink';text-align:start;writing-mode:lr-tb;direction:ltr;text-anchor:start;fill:#000000;fill-opacity:1;stroke:none;stroke-width:1.3361;stroke-linecap:round;stroke-linejoin:miter;stroke-dasharray:none;paint-order:markers stroke fill;filter:url(#filter28)"
             x="94.902306"
             y="434.64453"
             id="text86"><tspan
               sodipodi:role="line"
               id="tspan86"
               x="94.902306"
               y="434.64453"
               style="font-style:normal;font-variant:normal;font-weight:normal;font-stretch:normal;font-family:'Ambition &amp; Ink';-inkscape-font-specification:'Ambition &amp; Ink';stroke-width:1.3361">Bear's Bakery</tspan></text>
          <ellipse
             style="fill:#6c5353;fill-opacity:1;stroke:#501616;stroke-width:1.33611;stroke-linecap:round;stroke-linejoin:miter;stroke-dasharray:none;paint-order:markers stroke fill;filter:url(#filter28)"
             id="path67"
             cx="266.70258"
             cy="261.63162"
             rx="4.4501748"
             ry="3.7084789" />
          <ellipse
             style="fill:#5e4848;fill-opacity:1;stroke-width:4.25531;stroke-dasharray:none;filter:url(#filter28)"
             id="path5-7"
             cx="303.64355"
             cy="-269.51831"
             rx="37.966476"
             ry="36.410473"
             transform="rotate(67.633224)" />
          <ellipse
             style="fill:#5e4848;fill-opacity:1;stroke-width:4.25531;stroke-dasharray:none;filter:url(#filter28)"
             id="path5"
             cx="101.49538"
             cy="209.73694"
             rx="37.966476"
             ry="36.410473"
             transform="rotate(-12.455929)" />
          <path
             d="m 114.51003,198.11039 a 165.26668,126.49364 6.1130316 0 1 49.09453,-40.57481 c -7.36757,-4.2066 -17.78816,-5.33925 -27.10461,-3.862 -7.82491,1.24079 -17.42905,9.03117 -21.32213,19.14105 -3.55239,9.22509 -1.82494,18.29196 -0.66779,25.29576 z"
             style="fill:#ffffff;stroke-width:2.92077;filter:url(#filter28)"
             id="path25" />
          <path
             d="m 338.98322,156.57888 a 173.92459,129.71523 79.498944 0 1 54.30209,38.05812 c 1.98919,-8.65127 0.0592,-19.512 -4.1182,-28.5109 -3.50858,-7.55826 -13.98663,-15.04537 -25.0797,-16.09517 -10.1222,-0.95793 -18.54566,3.37794 -25.10423,6.54787 z"
             style="fill:#ffffff;stroke-width:2.92077;filter:url(#filter28)"
             id="path25-7" />
          <ellipse
             style="fill:#483737;stroke-width:1.3361;stroke-linecap:round;paint-order:markers stroke fill;filter:url(#filter28)"
             id="path21"
             cx="254.08438"
             cy="295.79318"
             rx="24.206802"
             ry="24.642176" />
          <path
             id="path4"
             style="fill:#6c5353;stroke-width:2.50842;filter:url(#filter28)"
             d="m 423.16182,259.97293 c -0.28545,63.93555 -77.51933,75.78228 -165.04475,75.40858 -87.52541,-0.37368 -169.564326,-12.72429 -169.278876,-76.65985 0.28545,-63.93555 75.627256,-122.26192 163.152696,-121.88824 87.52543,0.37368 171.45639,59.20396 171.17093,123.13951 z"
             sodipodi:nodetypes="sssss" />
          <ellipse
             style="opacity:0.753846;fill:#ffffff;stroke-width:3.30693;stroke-dasharray:none;filter:url(#filter28)"
             id="path26"
             cx="259.96851"
             cy="276.35504"
             rx="60.664745"
             ry="37.543442"
             transform="matrix(0.99998182,-0.0060305,-0.02369789,0.99971917,0,0)" />
          <g
             id="g26"
             transform="matrix(2.0493129,-0.45266823,0.50218757,2.2734961,-474.10869,-126.81035)"
             style="stroke-width:0.433193;filter:url(#filter28)">
            <path
               id="path9-23"
               style="fill:#241c1c;stroke-width:1.87399"
               d="m 305.96221,230.34272 c -3.83627,2.84577 -5.06506,5.46968 -8.03221,5.2384 -3.86976,-0.30165 -2.93761,-5.73464 -5.54194,-8.45794 -3.29049,-3.4408 2.8217,-3.68729 7.62278,-2.68205 4.80108,1.00523 9.7751,3.06514 5.95137,5.90159 z"
               sodipodi:nodetypes="sssss" />
            <path
               id="path10"
               style="fill:#483737;stroke-width:1.87399"
               d="m 296.2982,235.1433 c -0.45334,2.1652 -10.22066,7.36227 -18.69315,5.58832 -8.4725,-1.77395 -5.97988,-8.56602 -6.08257,-10.77577 -0.21946,-4.72261 -0.40888,7.86222 8.07417,9.67625 8.46482,1.81014 17.15489,-6.65399 16.70155,-4.4888 z"
               sodipodi:nodetypes="sssss" />
            <path
               id="path10-8"
               style="fill:#483737;stroke-width:1.87399"
               d="m 298.90514,235.7484 c -0.45334,2.16519 6.40867,10.84407 14.88117,12.61801 8.4725,1.77395 8.914,-5.44759 9.89454,-7.43054 2.09558,-4.23788 -2.77952,7.36586 -11.27777,5.62441 -8.47999,-1.73771 -13.04461,-12.97706 -13.49794,-10.81188 z"
               sodipodi:nodetypes="sssss" />
          </g>
          <g
             id="g18"
             transform="rotate(-14.195545,253.48706,196.94372)"
             style="stroke-width:0.774105;filter:url(#filter28)">
            <path
               id="path14"
               style="fill:#5e4848;stroke-width:3.34877"
               d="m 178.7936,292.55306 c 29.27397,25.23141 31.9008,54.25496 17.14281,71.37748 -14.75799,17.12251 -45.53112,15.51713 -74.80511,-9.71428 -29.273975,-25.23139 -36.105088,-66.07438 -21.347095,-83.1969 14.757995,-17.12252 49.735415,-3.69771 79.009395,21.5337 z"
               sodipodi:nodetypes="sssss" />
            <path
               style="opacity:0.753846;fill:#ffffff;fill-opacity:1;stroke-width:3.34877;stroke-dasharray:none"
               d="m 179.52242,362.10047 1.60256,6.74475 4.78202,2.77477 0.20493,-1.62277 z"
               id="path29" />
            <path
               style="opacity:0.753846;fill:#ffffff;fill-opacity:1;stroke-width:3.34877;stroke-dasharray:none"
               d="m 191.77524,351.53188 4.36349,3.43061 4.89202,0.72227 -2.83694,-2.64103 z"
               id="path30" />
            <path
               style="opacity:0.753846;fill:#ffffff;fill-opacity:1;stroke-width:3.34877;stroke-dasharray:none"
               d="m 196.82667,362.6902 -8.0051,-4.15849 -4.93642,-6.50834 2.60792,6.95011 z"
               id="path33-7" />
          </g>
          <path
             style="opacity:0.753846;fill:none;fill-opacity:1;stroke-width:3.34877;stroke-dasharray:none;filter:url(#filter28)"
             d="m 171.15471,125.79868 13.56299,32.83578 103.54019,-0.56047 20.95641,-37.75642 -72.89621,2.58049 z"
             id="path34" />
          <ellipse
             style="fill:#e6e6e6;stroke-width:1.3361;stroke-linecap:round;paint-order:markers stroke fill;filter:url(#filter28)"
             id="path6-1"
             cx="298.80743"
             cy="228.22737"
             rx="20.836699"
             ry="17.9189" />
          <ellipse
             style="fill:#000000;stroke-width:1.3361;stroke-linecap:round;paint-order:markers stroke fill;filter:url(#filter28)"
             id="path7-7"
             cx="295.37183"
             cy="229.19139"
             rx="17.318699"
             ry="15.608832" />
          <g
             id="g19"
             transform="rotate(14.568589,249.22351,167.7959)"
             style="stroke-width:0.774105;filter:url(#filter28)">
            <path
               id="path14-8"
               style="fill:#5e4848;stroke-width:3.34877"
               d="m 405.94335,342.85331 c -27.79333,23.31098 -62.40405,28.23518 -76.93037,10.91567 -14.52633,-17.31949 -9.30451,-52.22182 18.48882,-75.53281 27.79333,-23.31099 66.24828,-25.25989 80.7746,-7.94038 14.5263,17.31951 5.46026,49.24652 -22.33305,72.55752 z"
               sodipodi:nodetypes="sssss" />
            <path
               style="opacity:0.753846;fill:#ffffff;fill-opacity:1;stroke-width:3.34877;stroke-dasharray:none"
               d="m 345.14913,362.20168 9.54399,-6.56998 3.87105,-4.83884 -3.28282,6.78047 z"
               id="path31" />
            <path
               style="opacity:0.753846;fill:#ffffff;fill-opacity:1;stroke-width:3.34877;stroke-dasharray:none"
               d="m 327.12216,350.56721 8.0051,-4.15849 4.93642,-6.50834 -2.60792,6.95011 z"
               id="path33" />
            <path
               style="opacity:0.753846;fill:#ffffff;fill-opacity:1;stroke-width:3.34877;stroke-dasharray:none"
               d="m 335.2646,357.85167 6.14828,-3.90771 6.97874,-6.64076 -2.9948,5.9201 z"
               id="path9" />
          </g>
          <g
             id="g17"
             transform="translate(-2.7215033,35.554751)"
             style="stroke-width:0.774105;filter:url(#filter28)">
            <ellipse
               style="fill:#ececec;stroke-width:1.3361;stroke-linecap:round;paint-order:markers stroke fill"
               id="path6"
               cx="205.24519"
               cy="195.40788"
               rx="20.836699"
               ry="17.9189" />
            <ellipse
               style="fill:#000000;stroke-width:1.33609;stroke-linecap:round;paint-order:markers stroke fill"
               id="path7"
               cx="208.82507"
               cy="196.44873"
               rx="17.564983"
               ry="15.222986" />
            <ellipse
               style="fill:#f9f9f9;stroke-width:1.3361;stroke-linecap:round;paint-order:markers stroke fill"
               id="path12"
               cx="194.17686"
               cy="192.69659"
               rx="5.5727892"
               ry="2.0027211" />
          </g>
          <ellipse
             style="fill:#f9f9f9;stroke-width:1.3361;stroke-linecap:round;paint-order:markers stroke fill;filter:url(#filter28)"
             id="path13"
             cx="310.90707"
             cy="226.53973"
             rx="5.6598639"
             ry="1.8285714" />
          <ellipse
             style="fill:#483737;stroke-width:1.33674;stroke-linecap:round;paint-order:markers stroke fill;filter:url(#filter28)"
             id="path15"
             cx="249.90694"
             cy="139.45966"
             rx="10.77876"
             ry="5.2782431"
             transform="matrix(0.96213955,0.2725573,-0.23017953,0.97314818,0,0)" />
          <ellipse
             style="fill:#483737;stroke-width:1.33674;stroke-linecap:round;paint-order:markers stroke fill;filter:url(#filter28)"
             id="path15-8"
             cx="-214.84113"
             cy="289.591"
             rx="10.77876"
             ry="5.2782431"
             transform="matrix(-0.93986604,0.3415433,0.3000744,0.9539158,0,0)" />
          <ellipse
             style="fill:#ffffff;stroke-width:1.3361;stroke-linecap:round;paint-order:markers stroke fill;filter:url(#filter28)"
             id="path39"
             cx="158.47618"
             cy="258.43808"
             rx="3.8312924"
             ry="3.4829931" />
          <ellipse
             style="fill:#ffffff;stroke-width:1.3361;stroke-linecap:round;paint-order:markers stroke fill;filter:url(#filter28)"
             id="path39-8"
             cx="164.20135"
             cy="249.72108"
             rx="3.8312924"
             ry="3.4829931" />
          <ellipse
             style="fill:#ffffff;stroke-width:1.3361;stroke-linecap:round;paint-order:markers stroke fill;filter:url(#filter28)"
             id="path39-8-5"
             cx="170.61224"
             cy="258.3143"
             rx="3.8312924"
             ry="3.4829931" />
          <ellipse
             style="fill:#ffffff;stroke-width:1.3361;stroke-linecap:round;paint-order:markers stroke fill;filter:url(#filter28)"
             id="path39-3"
             cx="327.16327"
             cy="257.16599"
             rx="3.8312924"
             ry="3.4829931" />
          <ellipse
             style="fill:#ffffff;stroke-width:1.3361;stroke-linecap:round;paint-order:markers stroke fill;filter:url(#filter28)"
             id="path39-8-3"
             cx="332.88843"
             cy="248.44897"
             rx="3.8312924"
             ry="3.4829931" />
          <ellipse
             style="fill:#ffffff;stroke-width:1.3361;stroke-linecap:round;paint-order:markers stroke fill;filter:url(#filter28)"
             id="path39-8-5-4"
             cx="339.29932"
             cy="257.04218"
             rx="3.8312924"
             ry="3.4829931" />
        </g>
      </g>
    </g>
  </g>
</svg>
